<svg width="87" height="16.65" viewBox="0 0 166 32" fill="none" xmlns="http://www.w3.org/2000/svg">
<path d="M17.9508 10.589C15.0286 10.589 11.4341 12.9606 10.5818 15.8828H21.1694C22.0217 12.9606 20.873 10.589 17.9508 10.589Z" fill="#FF3300"/>
<path d="M36.395 0H4.63209C3.08629 5.29381 1.54579 10.5876 0 15.8814H5.29381C7.20488 9.97884 12.774 5.46321 18.9677 5.29381C24.685 5.135 28.1631 10.5506 26.4691 15.8814H31.7629C33.3087 10.5876 34.8492 5.29381 36.395 0Z" fill="#FF3300"/>
<path d="M19.0961 21.1746C22.0183 21.1746 25.6128 18.8029 26.4651 15.8807H15.8774C15.0251 18.8029 16.1739 21.1746 19.0961 21.1746Z" fill="#FF3300"/>
<path d="M37.0521 15.8807H31.7583C29.8472 21.7886 24.2781 26.299 18.0844 26.4684C12.367 26.6272 8.88901 21.2116 10.583 15.8807H5.28921C3.74342 21.1745 2.20292 26.4684 0.657127 31.7622H32.42C33.9658 26.4684 35.5063 21.1745 37.0521 15.8807Z" fill="#FF3300"/>
<path d="M62.927 12.0787L66.3574 8.64829C65.3833 7.58952 64.2399 6.77428 62.9535 6.22901C61.63 5.66258 60.1583 5.37671 58.5861 5.37671C56.5427 5.37671 54.6793 5.83727 53.0541 6.7478C51.4289 7.65834 50.1266 8.92356 49.1896 10.5117C48.2526 12.0999 47.7761 13.9103 47.7761 15.8955C47.7761 17.8807 48.2526 19.6118 49.1896 21.1946C50.1266 22.7828 51.4289 24.0533 53.0541 24.9797C54.6793 25.9061 56.5268 26.372 58.5437 26.372C60.1425 26.372 61.6353 26.0702 62.9747 25.4773C64.2716 24.9003 65.4151 24.0745 66.3627 23.0157L63.0117 19.6224C62.4612 20.1994 61.8259 20.6547 61.1271 20.9617C60.386 21.2899 59.5337 21.4593 58.5914 21.4593C57.5591 21.4593 56.6221 21.2105 55.8068 20.7235C54.9916 20.2364 54.3457 19.5694 53.8852 18.7383C53.4246 17.9072 53.197 16.9384 53.197 15.8532C53.197 14.7679 53.4299 13.7992 53.8852 12.968C54.3457 12.1369 54.9916 11.4752 55.8068 11.004C56.6221 10.5329 57.5591 10.2894 58.5861 10.2894C59.4966 10.2894 60.3436 10.4482 61.1006 10.7605C61.8153 11.057 62.4294 11.5016 62.9323 12.0787H62.927Z" fill="white"/>
<path d="M84.2189 6.7478C82.6043 5.83727 80.7515 5.37671 78.7081 5.37671C76.6646 5.37671 74.8542 5.84786 73.2395 6.76898C71.6249 7.6954 70.3332 8.95533 69.3909 10.5117C68.4539 12.0681 67.9775 13.8521 67.9775 15.8108C67.9775 17.7695 68.4539 19.6118 69.3909 21.1946C70.328 22.7828 71.6196 24.0533 73.2343 24.9797C74.8489 25.9061 76.6858 26.372 78.7028 26.372C80.7197 26.372 82.6096 25.9008 84.2348 24.9797C85.86 24.0533 87.1623 22.7775 88.0993 21.1734C89.0363 19.5747 89.5127 17.7695 89.5127 15.8108C89.5127 13.8521 89.031 12.0628 88.0781 10.4905C87.1252 8.91827 85.8229 7.65834 84.2136 6.7478H84.2189ZM83.4301 18.733C82.9855 19.5641 82.3449 20.2364 81.5297 20.7182C80.7144 21.2052 79.7615 21.454 78.7028 21.454C77.644 21.454 76.7388 21.2052 75.9394 20.7182C75.1347 20.2312 74.5048 19.5641 74.0601 18.733C73.6154 17.9072 73.3931 16.9331 73.3931 15.8479C73.3931 14.7626 73.6154 13.7939 74.0601 12.9627C74.5048 12.1316 75.14 11.4699 75.9394 10.9934C76.7441 10.5223 77.6705 10.2788 78.7028 10.2788C79.7351 10.2788 80.6985 10.517 81.4873 10.9934C82.2761 11.4646 82.9166 12.1263 83.3878 12.9574C83.8589 13.7886 84.0972 14.7573 84.0972 15.8426C84.0972 16.9278 83.8748 17.8966 83.4301 18.7277V18.733Z" fill="white"/>
<path d="M97.1267 25.1851C98.5031 25.9156 100.086 26.2862 101.822 26.2862C103.559 26.2862 105.131 25.9156 106.497 25.1851C107.857 24.4598 108.937 23.4169 109.705 22.0988C110.478 20.7806 110.864 19.2295 110.864 17.4932V5.83618H105.613V17.3661C105.613 18.6578 105.274 19.6795 104.607 20.4048C103.94 21.13 102.998 21.5006 101.817 21.5006C101.039 21.5006 100.351 21.3418 99.7736 21.0188C99.1913 20.6959 98.7466 20.2195 98.4554 19.5895C98.1696 18.9701 98.0214 18.2237 98.0214 17.3661V5.83618H92.7275V17.4932C92.7275 19.2295 93.1193 20.7806 93.8869 22.0988C94.6545 23.4169 95.745 24.4545 97.1161 25.1851H97.1267Z" fill="white"/>
<path d="M144.067 5.83735H139.308V0.130615H134.057V5.83735H129.303V10.4165H134.057V25.9062H139.308V10.4165H144.067V5.83735Z" fill="white"/>
<path d="M165.995 15.4297C165.995 13.4974 165.577 11.7452 164.751 10.2311C163.925 8.7171 162.75 7.51541 161.267 6.66311C159.78 5.8108 158.075 5.37671 156.196 5.37671C154.205 5.37671 152.39 5.83727 150.791 6.7478C149.192 7.65834 147.911 8.91827 146.99 10.4905C146.064 12.0628 145.598 13.868 145.598 15.8532C145.598 17.8383 146.074 19.6859 147.011 21.2581C147.948 22.8304 149.256 24.0903 150.897 25.0009C152.538 25.9114 154.438 26.372 156.535 26.372C158.165 26.372 159.69 26.0755 161.071 25.4985C162.411 24.9374 163.602 24.085 164.602 22.9733L161.506 19.8765C160.897 20.5647 160.177 21.0782 159.356 21.4064C158.504 21.7505 157.535 21.9199 156.487 21.9199C155.317 21.9199 154.279 21.6711 153.395 21.1893C152.506 20.7023 151.813 19.9823 151.341 19.0506C151.172 18.7171 151.029 18.3254 150.902 17.8595L150.86 17.6954L165.778 17.6584C165.873 17.256 165.936 16.8802 165.958 16.5414C165.984 16.1602 166 15.7896 166 15.435L165.995 15.4297ZM150.854 13.8309L150.902 13.6615C151.019 13.2327 151.146 12.8727 151.299 12.571C151.744 11.6658 152.39 10.9617 153.226 10.4746C154.057 9.98762 155.042 9.73881 156.154 9.73881C157.265 9.73881 158.112 9.95586 158.832 10.39C159.552 10.824 160.124 11.4646 160.526 12.2957C160.717 12.6875 160.865 13.1374 160.976 13.6351L161.013 13.7939L150.865 13.8256L150.854 13.8309Z" fill="white"/>
<path d="M123.827 10.2054C124.96 10.1842 125.754 10.2107 126.294 10.2901V5.87503C125.902 5.8168 125.5 5.78503 125.092 5.78503C122.499 5.78503 121.016 6.29324 119.973 7.53729L119.698 7.87609V5.83798H114.447V25.9068H119.698V14.8427C119.698 13.2705 120.085 12.09 120.852 11.3382C121.609 10.5971 122.578 10.2265 123.827 10.2054Z" fill="white"/>
</svg>
