<svg width="93" height="20" viewBox="0 0 150 32" fill="none" xmlns="http://www.w3.org/2000/svg">
<g clip-path="url(#clip0_9_267)">
<path d="M48.9965 31.5431C48.6964 31.5614 48.3957 31.5206 48.1114 31.4231C47.8272 31.3257 47.5651 31.1734 47.3402 30.9751C47.1267 30.7489 46.9631 30.4808 46.8597 30.1882C46.7563 29.8955 46.7155 29.5846 46.7398 29.2753V13.3227C46.7188 13.0176 46.7597 12.7113 46.8599 12.4222C46.9602 12.133 47.1179 11.8668 47.3237 11.6394C47.5466 11.4373 47.808 11.2819 48.0926 11.1822C48.3771 11.0825 48.6788 11.0406 48.9799 11.0591C49.2778 11.0413 49.5763 11.0836 49.8573 11.1833C50.1384 11.283 50.3963 11.4381 50.6155 11.6394C50.8212 11.8668 50.9789 12.133 51.0792 12.4222C51.1795 12.7113 51.2203 13.0176 51.1993 13.3227V15.3518L50.8681 14.1911C51.1647 13.2197 51.8121 12.3915 52.6858 11.8658C53.6228 11.278 54.7126 10.9761 55.8203 10.9973C57.0169 10.9748 58.1945 11.2964 59.2115 11.9234C60.209 12.5585 60.9978 13.4698 61.4806 14.5451C62.5512 17.1573 62.5512 20.0821 61.4806 22.6943C61.0141 23.7848 60.2247 24.7084 59.2173 25.3421C58.2099 25.9758 57.0323 26.2897 55.841 26.242C54.7534 26.2666 53.6815 25.981 52.7521 25.4189C51.9066 24.9335 51.2667 24.16 50.9509 23.2417H51.2821V29.2795C51.3063 29.5877 51.2666 29.8976 51.1655 30.19C51.0644 30.4824 50.904 30.751 50.6942 30.9793C50.4628 31.1802 50.1936 31.3335 49.9022 31.4303C49.6107 31.527 49.3029 31.5654 48.9965 31.5431V31.5431ZM54.487 22.9001C55.0842 22.9101 55.6718 22.7502 56.1806 22.4391C56.6981 22.0953 57.0958 21.6008 57.3192 21.0233C57.6173 20.2533 57.7581 19.432 57.7333 18.6073C57.7333 17.1545 57.4352 16.0885 56.8348 15.4012C56.5476 15.066 56.1882 14.7995 55.7832 14.6213C55.3782 14.4432 54.938 14.3581 54.4953 14.3722C53.8982 14.3599 53.3098 14.5154 52.7976 14.8209C52.2775 15.1545 51.8784 15.6449 51.659 16.2202C51.3637 16.9809 51.223 17.7923 51.2449 18.6073C51.2449 20.0753 51.5458 21.1577 52.1476 21.8547C52.4329 22.1928 52.7917 22.4621 53.1969 22.6425C53.6021 22.8229 54.0432 22.9095 54.487 22.8959V22.9001Z" fill="white"/>
<path d="M66.6937 8.64309C66.011 8.6892 65.3361 8.47591 64.8056 8.04631C64.5783 7.82724 64.4014 7.5619 64.2871 7.26849C64.1727 6.97509 64.1236 6.66057 64.143 6.34651C64.1259 6.04067 64.1764 5.73481 64.2908 5.45041C64.4053 5.16601 64.581 4.90995 64.8056 4.70021C65.3412 4.28154 66.0138 4.07482 66.6937 4.11989C67.3878 4.07323 68.0752 4.27953 68.6274 4.70021C68.8573 4.90663 69.0376 5.16171 69.1552 5.44664C69.2727 5.73157 69.3244 6.03908 69.3064 6.34651C69.3261 6.66205 69.2754 6.978 69.158 7.27182C69.0406 7.56564 68.8594 7.8301 68.6274 8.04631C68.0801 8.47775 67.3905 8.69057 66.6937 8.64309V8.64309ZM66.6937 26.1762C66.3874 26.1939 66.0809 26.1457 65.795 26.0349C65.5092 25.9241 65.2508 25.7532 65.0374 25.5341C64.6107 25.0328 64.3955 24.3868 64.437 23.7314V13.5038C64.4125 13.1788 64.4529 12.8522 64.5559 12.5428C64.659 12.2334 64.8226 11.9473 65.0374 11.7011C65.2555 11.4901 65.5154 11.3266 65.8006 11.2211C66.0857 11.1155 66.3899 11.0701 66.6937 11.0878C67.004 11.0673 67.3152 11.1113 67.6074 11.2168C67.8997 11.3224 68.1667 11.4873 68.3914 11.7011C68.8141 12.2038 69.0234 12.8503 68.9752 13.5038V23.7314C69.016 24.3819 68.8124 25.0243 68.4038 25.5341C68.1832 25.7588 67.9158 25.9327 67.6204 26.0437C67.3249 26.1546 67.0086 26.1998 66.6937 26.1762V26.1762Z" fill="white"/>
<path d="M79.0536 26.2337C77.6087 26.2705 76.1769 25.9539 74.8839 25.3118C73.7258 24.7149 72.7708 23.7914 72.1387 22.6572C71.4642 21.4014 71.129 19.9932 71.1656 18.5702C71.1487 17.4927 71.3312 16.4213 71.7039 15.4093C72.0429 14.5082 72.5805 13.694 73.2773 13.0263C73.9903 12.3569 74.8367 11.8437 75.7617 11.52C77.4555 10.9437 79.2761 10.8411 81.0245 11.2236C81.7432 11.3774 82.439 11.6222 83.0949 11.9521C83.4402 12.1367 83.7184 12.4247 83.8899 12.7752C84.0357 13.084 84.0932 13.4267 84.0559 13.7658C84.0187 14.1048 83.8881 14.4271 83.6787 14.6973C83.4816 14.9593 83.2016 15.1478 82.8837 15.2323C82.516 15.3167 82.1298 15.2594 81.803 15.0718C81.4273 14.8725 81.03 14.7165 80.6187 14.6068C80.2423 14.5029 79.8541 14.4475 79.4635 14.4421C78.9199 14.4321 78.3796 14.5286 77.8735 14.7261C77.4299 14.9066 77.0355 15.1886 76.7224 15.5493C76.3939 15.9268 76.1485 16.3684 76.0019 16.8457C75.8238 17.4145 75.7372 18.0076 75.7452 18.6031C75.6831 19.7247 76.0301 20.8309 76.7224 21.7188C77.0612 22.1049 77.4843 22.409 77.9593 22.608C78.4343 22.807 78.9488 22.8956 79.4635 22.8671C79.8491 22.8638 80.2328 22.8141 80.6063 22.7189C81.0249 22.6137 81.4274 22.4531 81.803 22.2415C82.1255 22.0539 82.5094 22.0007 82.8712 22.0933C83.1858 22.1994 83.461 22.397 83.6611 22.6604C83.8612 22.9239 83.9769 23.2411 83.9934 23.5708C84.0131 23.9138 83.9463 24.2562 83.7988 24.5668C83.6333 24.9027 83.3508 25.1674 83.0037 25.3118C82.3706 25.6613 81.688 25.9138 80.979 26.0609C80.3442 26.1795 79.6994 26.2373 79.0536 26.2337V26.2337Z" fill="white"/>
<path d="M95.2808 26.2337C94.1738 26.2538 93.0848 25.9535 92.1463 25.3694C91.2742 24.8429 90.6283 24.0148 90.3327 23.044L90.6598 22.0604V23.9289C90.6813 24.2341 90.6407 24.5405 90.5404 24.8297C90.4401 25.1189 90.2821 25.3851 90.076 25.6123C89.8577 25.815 89.6 25.9715 89.3188 26.0719C89.0376 26.1724 88.7387 26.2149 88.4404 26.1967C88.139 26.2155 87.8368 26.1735 87.5521 26.073C87.2675 25.9726 87.0062 25.8158 86.7842 25.6123C86.578 25.3851 86.4201 25.1189 86.3198 24.8297C86.2195 24.5405 86.1789 24.2341 86.2004 23.9289V6.94326C86.1765 6.63405 86.2176 6.32329 86.321 6.03068C86.4243 5.73808 86.5877 5.47001 86.8008 5.24346C87.2566 4.84604 87.8518 4.64342 88.457 4.6796C89.0755 4.63825 89.6855 4.84084 90.1547 5.24346C90.3627 5.47274 90.5217 5.74162 90.6221 6.03381C90.7224 6.326 90.762 6.6354 90.7385 6.94326V14.01H90.4073C90.7257 13.0931 91.3649 12.3204 92.2085 11.8328C93.1387 11.2726 94.21 10.9871 95.2974 11.0096C96.4947 10.9811 97.674 11.3031 98.6886 11.9356C99.6731 12.5798 100.453 13.4891 100.937 14.5574C101.512 15.8325 101.795 17.2185 101.765 18.6155C101.796 20.0173 101.525 21.4094 100.97 22.6983C100.498 23.7832 99.7087 24.7022 98.7052 25.3365C97.6743 25.9567 96.4853 26.2682 95.2808 26.2337V26.2337ZM93.931 22.8959C94.5282 22.906 95.1158 22.746 95.6245 22.4349C96.1432 22.0914 96.5423 21.5969 96.7673 21.0191C97.0633 20.2485 97.204 19.4277 97.1814 18.6032C97.1814 17.1503 96.8833 16.0843 96.2829 15.397C95.9957 15.0618 95.6363 14.7953 95.2313 14.6171C94.8262 14.439 94.3861 14.3539 93.9434 14.3681C93.3475 14.3552 92.7602 14.5107 92.2499 14.8167C91.7282 15.1496 91.3276 15.6401 91.107 16.216C90.8118 16.9768 90.671 17.7881 90.693 18.6032C90.693 20.0711 90.9925 21.1535 91.5915 21.8505C91.8764 22.1893 92.235 22.4595 92.6403 22.6406C93.0455 22.8217 93.4868 22.909 93.931 22.8959Z" fill="white"/>
<path d="M111.537 26.2338C109.991 26.276 108.455 25.9604 107.053 25.3119C105.851 24.7358 104.85 23.8175 104.175 22.6737C103.479 21.4308 103.132 20.0251 103.169 18.6032C103.136 17.2234 103.474 15.8598 104.146 14.6521C104.785 13.5401 105.711 12.6179 106.829 11.981C107.862 11.4246 109.004 11.0955 110.176 11.016C111.348 10.9365 112.524 11.1084 113.624 11.52C114.473 11.8601 115.236 12.3809 115.861 13.0457C116.485 13.7106 116.956 14.5033 117.239 15.3682C117.57 16.3636 117.732 17.4068 117.719 18.455C117.73 18.6146 117.704 18.7745 117.641 18.9218C117.578 19.0691 117.482 19.1997 117.359 19.3029C117.051 19.5128 116.68 19.6129 116.307 19.5869H106.92V17.2615H114.448L113.968 17.673C113.991 16.9698 113.869 16.2692 113.607 15.6152C113.394 15.1099 113.034 14.6798 112.572 14.3804C112.074 14.0794 111.499 13.9292 110.916 13.9483C110.25 13.9276 109.593 14.1038 109.028 14.4545C108.488 14.8149 108.07 15.3282 107.827 15.928C107.532 16.6628 107.391 17.45 107.413 18.241V18.4797C107.413 19.9888 107.762 21.1015 108.461 21.8176C109.159 22.5337 110.219 22.8918 111.641 22.8918C112.19 22.8837 112.738 22.8231 113.276 22.7107C113.883 22.5953 114.472 22.4059 115.032 22.1469C115.411 21.9422 115.848 21.8684 116.274 21.937C116.598 22.0045 116.89 22.1785 117.102 22.4308C117.312 22.6769 117.433 22.9854 117.446 23.3075C117.464 23.6549 117.387 24.0007 117.222 24.3076C117.028 24.6625 116.729 24.9498 116.365 25.1308C115.638 25.5404 114.847 25.8283 114.026 25.9827C113.206 26.1479 112.373 26.232 111.537 26.2338V26.2338Z" fill="white"/>
<path d="M124.767 26.2338C123.753 26.2571 122.747 26.0487 121.827 25.6247C121.029 25.2534 120.345 24.6764 119.847 23.9537C119.363 23.2364 119.112 22.389 119.127 21.5254C119.072 20.6068 119.367 19.7012 119.955 18.9901C120.514 18.3727 121.421 17.9282 122.671 17.6484C124.316 17.3354 125.99 17.1975 127.665 17.2368H129.255V19.5622H127.694C126.863 19.5476 126.032 19.6027 125.21 19.7268C124.718 19.7847 124.254 19.9819 123.872 20.2948C123.732 20.4324 123.623 20.5977 123.552 20.7799C123.481 20.9621 123.449 21.1572 123.458 21.3525C123.452 21.6048 123.501 21.8553 123.602 22.0869C123.703 22.3185 123.853 22.5257 124.042 22.6943C124.505 23.076 125.098 23.2673 125.698 23.2293C126.244 23.2383 126.782 23.1049 127.259 22.8424C127.713 22.5928 128.087 22.2221 128.34 21.7723C128.61 21.266 128.744 20.699 128.729 20.1261V16.7264C128.729 15.8539 128.526 15.2324 128.129 14.862C127.731 14.4916 127.04 14.3105 126.058 14.3105C125.478 14.3174 124.9 14.378 124.332 14.4916C123.621 14.6382 122.927 14.8575 122.261 15.146C121.892 15.32 121.474 15.3621 121.077 15.2654C120.758 15.1743 120.484 14.9671 120.311 14.685C120.132 14.3941 120.039 14.0589 120.042 13.7178C120.043 13.3578 120.146 13.0053 120.34 12.7012C120.585 12.3518 120.946 12.0985 121.359 11.9851C122.208 11.6509 123.087 11.3973 123.984 11.2278C124.731 11.0865 125.489 11.0108 126.249 11.0014C127.557 10.9602 128.86 11.1886 130.075 11.6723C131.04 12.0804 131.835 12.8073 132.323 13.7302C132.853 14.8364 133.106 16.0536 133.06 17.278V23.929C133.103 24.5405 132.904 25.1444 132.505 25.6123C132.304 25.8124 132.062 25.9679 131.796 26.0687C131.53 26.1694 131.245 26.213 130.961 26.1968C130.669 26.2092 130.379 26.1603 130.107 26.0532C129.836 25.9461 129.591 25.7832 129.388 25.5753C128.989 25.1074 128.79 24.5035 128.833 23.892V22.7889L129.044 22.9988C128.94 23.6215 128.676 24.2069 128.278 24.6986C127.884 25.1792 127.382 25.5612 126.812 25.814C126.169 26.0997 125.471 26.243 124.767 26.2338V26.2338Z" fill="white"/>
<path d="M137.304 26.1761C136.999 26.204 136.692 26.1643 136.404 26.0597C136.116 25.9551 135.855 25.7883 135.64 25.5714C135.425 25.3544 135.261 25.0927 135.16 24.8051C135.059 24.5175 135.024 24.2112 135.056 23.9084V6.94326C135.032 6.63405 135.073 6.32329 135.177 6.03068C135.28 5.73808 135.443 5.47001 135.656 5.24346C136.112 4.84604 136.707 4.64342 137.313 4.6796C137.931 4.63825 138.541 4.84084 139.01 5.24346C139.218 5.47274 139.377 5.74162 139.478 6.03381C139.578 6.326 139.618 6.6354 139.594 6.94326V17.3808H139.652L144.004 12.5777C144.355 12.1482 144.756 11.7626 145.201 11.4294C145.653 11.1588 146.177 11.0297 146.704 11.059C146.963 11.0386 147.224 11.0703 147.471 11.1524C147.718 11.2344 147.946 11.365 148.141 11.5364C148.297 11.6848 148.421 11.8629 148.507 12.0602C148.592 12.2575 148.637 12.4699 148.637 12.6847C148.618 13.2008 148.411 13.6923 148.054 14.0676L143.466 19.1094V17.4096L148.567 23.2539C148.739 23.4428 148.871 23.6638 148.956 23.9042C149.04 24.1445 149.076 24.3992 149.06 24.6533C149.041 24.8713 148.975 25.0827 148.866 25.273C148.758 25.4634 148.609 25.6282 148.43 25.7563C148.035 26.041 147.556 26.186 147.068 26.1679C146.499 26.1957 145.932 26.0661 145.433 25.7934C144.956 25.4835 144.536 25.0952 144.19 24.6451L139.66 19.6074H139.603V23.9289C139.591 25.4271 138.825 26.1761 137.304 26.1761Z" fill="white"/>
<path d="M0.438898 27.9083L12.1505 16.2672L17.5612 21.6454L9.16402 29.9921C8.007 31.1421 6.43774 31.7882 4.80146 31.7882C3.16519 31.7882 1.59593 31.1421 0.438907 29.9921V29.9921C0.160911 29.7158 0.00473559 29.341 0.00473557 28.9502C0.00473556 28.5594 0.160902 28.1846 0.438898 27.9083V27.9083Z" fill="#03A242"/>
<path d="M28.0571 0.469221L6.69545 21.7023C7.76523 24.1672 9.41587 26.3401 11.508 28.0376C13.6002 29.7351 16.0725 30.9074 18.7163 31.4555C21.3601 32.0037 24.0978 31.9116 26.6982 31.1871C29.2987 30.4626 31.6856 29.1269 33.6576 27.2927C35.6296 25.4585 37.1287 23.1797 38.0284 20.6486C38.9282 18.1175 39.2021 15.4085 38.8271 12.75C38.4521 10.0916 37.4392 7.56184 35.8739 5.37428C34.3086 3.18671 32.2369 1.40554 29.8335 0.181114C29.5447 0.0367042 29.2173 -0.0131935 28.8983 0.0385551C28.5792 0.0903037 28.2848 0.241051 28.0571 0.469221V0.469221Z" fill="#00C35E"/>
<path d="M23.4279 13.4008C24.1459 13.4008 24.7281 12.8222 24.7281 12.1085C24.7281 11.3948 24.1459 10.8162 23.4279 10.8162C22.7098 10.8162 22.1277 11.3948 22.1277 12.1085C22.1277 12.8222 22.7098 13.4008 23.4279 13.4008Z" fill="#212121"/>
<path d="M34.2226 13.4008C34.9407 13.4008 35.5228 12.8222 35.5228 12.1085C35.5228 11.3948 34.9407 10.8162 34.2226 10.8162C33.5045 10.8162 32.9224 11.3948 32.9224 12.1085C32.9224 12.8222 33.5045 13.4008 34.2226 13.4008Z" fill="#212121"/>
<path d="M29.5104 18.7909L32.1639 16.2924H25.4135L28.0669 18.7909C28.2632 18.9729 28.521 19.074 28.7887 19.074C29.0564 19.074 29.3142 18.9729 29.5104 18.7909Z" fill="#B04121"/>
<path d="M28.0732 14.1446L25.4135 16.2923H32.1639L29.5042 14.1446C29.3084 13.9924 29.0533 13.9081 28.7887 13.9081C28.5241 13.9081 28.269 13.9924 28.0732 14.1446Z" fill="#C84E29"/>
</g>
<defs>
<clipPath id="clip0_9_267">
<rect width="149.06" height="31.79" fill="white"/>
</clipPath>
</defs>
</svg>
