<svg width="65" height="43" viewBox="0 0 65 43" fill="none" xmlns="http://www.w3.org/2000/svg">
<path d="M8.4 42V24.43L0.63 0.629999H8.75L12.32 13.02L12.81 15.68L13.3 13.02L17.15 0.629999H24.57L16.52 24.85V42H8.4ZM38.5443 42.84C36.2576 42.84 34.2276 42.56 32.4543 42C30.7276 41.4867 29.351 40.39 28.3243 38.71C27.3443 36.9833 26.8543 34.44 26.8543 31.08V9.38C26.8543 6.90666 27.3443 4.99333 28.3243 3.64C29.351 2.28666 30.751 1.35333 32.5243 0.84C34.2976 0.279999 36.3276 -1.66893e-06 38.6143 -1.66893e-06C40.9476 -1.66893e-06 42.9543 0.279999 44.6343 0.84C46.361 1.4 47.691 2.35666 48.6243 3.71C49.5576 5.06333 50.0243 6.95333 50.0243 9.38V17.92H41.9043V9.03C41.9043 7.91 41.7643 7.07 41.4843 6.51C41.2043 5.90333 40.8076 5.50666 40.2943 5.32C39.8276 5.13333 39.2676 5.04 38.6143 5.04C37.961 5.04 37.3776 5.13333 36.8643 5.32C36.351 5.50666 35.9543 5.90333 35.6743 6.51C35.3943 7.07 35.2543 7.91 35.2543 9.03V34.09C35.2543 35.1633 35.3943 36.0033 35.6743 36.61C35.9543 37.17 36.351 37.5667 36.8643 37.8C37.3776 37.9867 37.961 38.08 38.6143 38.08C39.2676 38.08 39.8276 37.9867 40.2943 37.8C40.8076 37.5667 41.2043 37.17 41.4843 36.61C41.7643 36.0033 41.9043 35.1633 41.9043 34.09V25.9H50.0243V31.01C50.0243 34.4167 49.5576 36.9833 48.6243 38.71C47.691 40.39 46.361 41.4867 44.6343 42C42.9543 42.56 40.9243 42.84 38.5443 42.84Z" fill="white"/>
<path d="M59.8566 42.63C58.7366 42.63 57.7566 42.2567 56.9166 41.51C56.1232 40.7167 55.7266 39.76 55.7266 38.64C55.7266 37.52 56.1232 36.5867 56.9166 35.84C57.7566 35.0467 58.7366 34.65 59.8566 34.65C61.0232 34.65 62.0266 35.0467 62.8666 35.84C63.7066 36.5867 64.1266 37.52 64.1266 38.64C64.1266 39.76 63.7066 40.7167 62.8666 41.51C62.0266 42.2567 61.0232 42.63 59.8566 42.63Z" fill="#74FAC0"/>
</svg>
